<svg width="13" height="12" viewBox="0 0 13 12" fill="none" xmlns="http://www.w3.org/2000/svg">
<path d="M7.9735 0C8.0196 0.752657 8.0855 1.5086 8.1085 2.26455C8.1415 3.31958 8.5962 3.77644 9.6835 3.49707C10.3655 3.32287 11.0607 3.20126 11.7559 3.09609C11.8679 3.07965 12.0096 3.27028 12.3489 3.52007C11.8646 3.92763 11.4659 4.32203 11.0113 4.63427C9.4331 5.72217 9.4429 6.06399 11.0607 7.1749C11.5252 7.49371 11.9371 7.88812 12.372 8.24637L12.1908 8.74595C11.5615 8.65721 10.919 8.62434 10.3095 8.46658C8.4809 8.00315 8.2502 8.1642 8.3227 9.99159C8.3425 10.5175 8.3227 11.0434 8.3227 11.5692L7.8285 11.7927C7.4792 11.2833 7.0674 10.8067 6.7873 10.2611C5.9439 8.60462 5.6803 8.5356 4.2668 9.65637C3.7825 10.0376 3.2322 10.34 2.715 10.6785L2.2702 10.3499C2.5535 9.71879 2.7973 9.06476 3.1301 8.46329C3.7265 7.39182 3.3937 6.82979 2.2405 6.61287C1.4893 6.47154 0.7447 6.30063 0 6.13958L0.0131989 5.54469C0.761099 5.36063 1.5025 5.13385 2.2603 5.00238C3.4003 4.80518 3.621 4.2563 3.0642 3.28014C2.6919 2.62937 2.3789 1.94574 2.0362 1.27525L2.5107 0.903847C3.0642 1.27525 3.6441 1.61049 4.1647 2.02133C5.4925 3.06322 5.901 2.97777 6.5863 1.46588C6.8104 0.969577 7.0674 0.489721 7.3079 0.00328699H7.9669L7.9735 0Z" fill="#B8C137"/>
</svg>
