<svg width="68" height="70" viewBox="0 0 68 70" fill="none" xmlns="http://www.w3.org/2000/svg">
<path d="M30.6124 9.10931C31.0298 8.86835 31.1758 8.33201 30.8995 7.93715C29.5517 6.01097 27.5635 4.61074 25.2749 3.99751C22.7042 3.30869 19.9651 3.6693 17.6603 5C15.3554 6.3307 13.6736 8.5225 12.9848 11.0932C12.3715 13.3818 12.59 15.8038 13.5843 17.9341C13.7881 18.3708 14.3256 18.5125 14.7429 18.2716L30.6124 9.10931Z" fill="#EF8988"/>
<path d="M54.595 18.2716C55.0124 18.5125 55.5498 18.3708 55.7537 17.9341C56.7479 15.8038 56.9664 13.3818 56.3532 11.0932C55.6644 8.5225 53.9825 6.3307 51.6777 5C49.3728 3.6693 46.6338 3.30869 44.063 3.99751C41.7745 4.61074 39.7862 6.01097 38.4384 7.93715C38.1621 8.33201 38.3082 8.86835 38.7255 9.10931L54.595 18.2716Z" fill="#EF8988"/>
<path d="M38.7314 60.7099C38.3159 60.9541 38.1741 61.4915 38.4534 61.8842C39.8161 63.7999 41.8152 65.1846 44.1085 65.78C46.6845 66.4488 49.4207 66.0669 51.7151 64.7184C54.0096 63.3698 55.6743 61.165 56.3431 58.589C56.9385 56.2957 56.7012 53.8755 55.6904 51.753C55.4832 51.3179 54.9446 51.1803 54.5292 51.4245L38.7314 60.7099Z" fill="#EF8988"/>
<path d="M14.6785 51.7732C14.2592 51.5355 13.7229 51.6814 13.5225 52.1197C12.5448 54.2576 12.3451 56.6813 12.9761 58.965C13.6849 61.5303 15.3837 63.709 17.6989 65.0217C20.014 66.3344 22.7558 66.6737 25.3211 65.965C27.6048 65.334 29.5821 63.9183 30.9149 61.9817C31.1881 61.5847 31.0379 61.0495 30.6187 60.8118L14.6785 51.7732Z" fill="#EF8988"/>
<path d="M10.7143 24.8377C10.7143 24.3558 10.2963 23.9612 9.78369 24.003C7.28312 24.2071 4.92694 25.2289 3.13814 26.9043C1.12882 28.7862 2.14535e-07 31.3386 0 34C-2.14535e-07 36.6614 1.12882 39.2138 3.13814 41.0957C4.92694 42.7711 7.28312 43.7929 9.78369 43.997C10.2963 44.0388 10.7143 43.6442 10.7143 43.1623L10.7143 24.8377Z" fill="#EF8988"/>
<path d="M57 44.1623C57 44.6442 57.418 45.0388 57.9306 44.997C60.4312 44.7929 62.7873 43.7711 64.5761 42.0957C66.5855 40.2138 67.7143 37.6614 67.7143 35C67.7143 32.3386 66.5855 29.7862 64.5761 27.9043C62.7873 26.2289 60.4312 25.2071 57.9306 25.003C57.418 24.9612 57 25.3558 57 25.8377L57 44.1623Z" fill="#EF8988"/>
<path d="M22 39.5811C22 39.8221 22.209 40.0194 22.4653 39.9985C23.7156 39.8964 24.8937 39.3855 25.7881 38.5479C26.7927 37.6069 27.3571 36.3307 27.3571 35C27.3571 33.6693 26.7927 32.3931 25.7881 31.4521C24.8937 30.6145 23.7156 30.1036 22.4653 30.0015C22.209 29.9806 22 30.1779 22 30.4189L22 39.5811Z" fill="#EF8988"/>
<path d="M47.3571 30.4189C47.3571 30.1779 47.1482 29.9806 46.8918 30.0015C45.6416 30.1036 44.4635 30.6145 43.5691 31.4521C42.5644 32.3931 42 33.6693 42 35C42 36.3307 42.5644 37.6069 43.5691 38.5479C44.4635 39.3855 45.6416 39.8964 46.8918 39.9985C47.1482 40.0194 47.3571 39.8221 47.3571 39.5811L47.3571 30.4189Z" fill="#EF8988"/>
<path d="M32.2975 48.43C32.5062 48.5505 32.7815 48.4681 32.8916 48.2357C33.4283 47.1019 33.575 45.8262 33.2967 44.6328C32.9841 43.2922 32.1611 42.1654 31.0087 41.5C29.8563 40.8346 28.4688 40.6853 27.1516 41.0849C25.979 41.4407 24.9475 42.2055 24.234 43.2372C24.0877 43.4487 24.1541 43.7284 24.3628 43.8489L32.2975 48.43Z" fill="#EF8988"/>
<path d="M43.9761 43.8489C44.1847 43.7284 44.2511 43.4487 44.1049 43.2372C43.3913 42.2055 42.3598 41.4407 41.1872 41.0849C39.87 40.6853 38.4826 40.8346 37.3301 41.5C36.1777 42.1654 35.3547 43.2922 35.0421 44.6328C34.7639 45.8262 34.9105 47.1019 35.4472 48.2357C35.5573 48.4681 35.8326 48.5505 36.0413 48.43L43.9761 43.8489Z" fill="#EF8988"/>
<path d="M36.0413 22.2094C35.8326 22.089 35.5573 22.1713 35.4472 22.4037C34.9105 23.5375 34.7639 24.8132 35.0421 26.0066C35.3547 27.3472 36.1777 28.4741 37.3301 29.1394C38.4825 29.8048 39.87 29.9541 41.1872 29.5545C42.3598 29.1988 43.3913 28.4339 44.1049 27.4022C44.2511 27.1907 44.1847 26.911 43.9761 26.7906L36.0413 22.2094Z" fill="#EF8988"/>
<path d="M24.3628 26.7906C24.1541 26.911 24.0877 27.1907 24.234 27.4022C24.9475 28.4339 25.979 29.1988 27.1516 29.5545C28.4688 29.9541 29.8563 29.8048 31.0087 29.1394C32.1611 28.4741 32.9841 27.3472 33.2967 26.0066C33.5749 24.8132 33.4283 23.5375 32.8916 22.4037C32.7815 22.1713 32.5062 22.089 32.2975 22.2094L24.3628 26.7906Z" fill="#EF8988"/>
</svg>
